<svg width="58" height="36" viewBox="0 0 58 36" fill="none" xmlns="http://www.w3.org/2000/svg">
<path d="M55.0725 23.2208C55.6729 21.7677 55.9886 20.2129 56.0025 18.6408C56.0025 15.4582 54.7383 12.406 52.4878 10.1555C50.2374 7.90508 47.1851 6.6408 44.0025 6.6408H43.3725C42.8583 4.74814 41.74 3.07524 40.1876 1.87664C38.6352 0.678048 36.7337 0.0193607 34.7725 0.000798983C33.4417 -0.0172577 32.1246 0.27096 30.923 0.843171C29.7213 1.41538 28.6674 2.25626 27.8425 3.3008C26.6947 3.06307 25.5247 2.94908 24.3525 2.9608C23.8225 2.9608 23.3025 2.9608 22.7925 3.0308C18.8433 3.38245 15.1571 5.15979 12.4225 8.0308L12.3325 8.1308C12.0925 8.3808 11.8625 8.6508 11.6425 8.9208C11.4225 9.1908 11.4025 9.2108 11.2925 9.3608C11.1825 9.5108 11.0325 9.7108 10.9025 9.8908C10.7725 10.0708 10.5325 10.4308 10.3625 10.7108L10.2125 10.9508C9.20104 12.6721 8.52257 14.5685 8.21255 16.5408C8.21255 16.5408 8.21255 16.6108 8.21255 16.6508C8.21255 16.8708 8.13255 17.1008 8.10255 17.3308C5.78089 17.6165 3.65433 18.7731 2.15275 20.5667C0.65118 22.3603 -0.113384 24.6571 0.0136264 26.9928C0.140637 29.3286 1.14975 31.5289 2.83695 33.1491C4.52416 34.7693 6.7636 35.6885 9.10255 35.7208H51.1325C52.5773 35.6827 53.9742 35.1944 55.1281 34.3242C56.282 33.4539 57.1355 32.2451 57.5694 30.8665C58.0032 29.4878 57.9958 28.0081 57.5482 26.6339C57.1006 25.2597 56.2351 24.0595 55.0725 23.2008V23.2208ZM51.0725 33.7408H9.07255C8.12309 33.7467 7.18177 33.5656 6.30232 33.2077C5.42287 32.8498 4.62253 32.3222 3.94698 31.655C2.58266 30.3076 1.80948 28.4733 1.79755 26.5558C1.78561 24.6383 2.5359 22.7946 3.88334 21.4302C5.23079 20.0659 7.06503 19.2927 8.98255 19.2808H9.89255L9.95255 18.3808C10.2291 14.6682 11.9319 11.2067 14.704 8.72162C17.4761 6.23657 21.1024 4.92083 24.8231 5.05011C28.5438 5.17939 32.07 6.74365 34.663 9.41512C37.2559 12.0866 38.7143 15.6579 38.7325 19.3808C38.7287 20.8456 38.5063 22.3017 38.0725 23.7008C37.9944 23.9541 38.0201 24.228 38.1438 24.4624C38.2676 24.6968 38.4793 24.8725 38.7325 24.9508C38.8262 24.9817 38.9239 24.9985 39.0225 25.0008C39.2444 25.0103 39.4631 24.9456 39.6442 24.8171C39.8252 24.6885 39.9584 24.5034 40.0225 24.2908C40.5162 22.7007 40.769 21.0457 40.7725 19.3808C40.7655 18.5773 40.702 17.7754 40.5825 16.9808C41.6235 17.066 42.6402 17.3405 43.5825 17.7908C45.4716 18.7216 46.9174 20.3597 47.6063 22.3498C48.2953 24.3398 48.1717 26.5213 47.2625 28.4208C47.1492 28.6596 47.135 28.9336 47.2231 29.1828C47.3112 29.432 47.4943 29.6362 47.7325 29.7508C47.8659 29.8178 48.0133 29.8521 48.1625 29.8508C48.351 29.8503 48.5355 29.7965 48.6948 29.6956C48.854 29.5948 48.9815 29.451 49.0625 29.2808C50.2008 26.9014 50.353 24.1686 49.4858 21.6776C48.6186 19.1865 46.8024 17.139 44.4325 15.9808C43.0872 15.3439 41.6209 15.0029 40.1325 14.9808C39.425 12.462 38.1269 10.1483 36.346 8.23171C34.5651 6.31513 32.3527 4.85098 29.8925 3.9608C30.5249 3.32393 31.2775 2.81914 32.1067 2.47579C32.9359 2.13244 33.8251 1.95738 34.7225 1.9608C36.3807 1.97374 37.9805 2.57493 39.2368 3.65727C40.4931 4.7396 41.3244 6.23278 41.5825 7.8708L41.7525 8.9508L42.8125 8.6908C43.1975 8.61346 43.5903 8.58323 43.9825 8.6008C46.6347 8.6008 49.1783 9.65437 51.0536 11.5297C52.929 13.4051 53.9825 15.9486 53.9825 18.6008C53.9659 20.1929 53.5935 21.7612 52.8925 23.1908L52.5025 24.0508L53.3325 24.4908C54.2826 25.0124 55.0343 25.8326 55.4714 26.8244C55.9084 27.8162 56.0064 28.9244 55.7503 29.9775C55.4941 31.0307 54.898 31.97 54.0542 32.6503C53.2105 33.3306 52.1661 33.7138 51.0825 33.7408H51.0725Z" fill="#00C853"/>
</svg>
